<svg data-v-fde0c5aa="" xmlns="http://www.w3.org/2000/svg" viewBox="0 0 300 300" class="icon"><!----><defs data-v-fde0c5aa=""><!----></defs><rect data-v-fde0c5aa="" fill="transparent" x="0" y="0" width="300px" height="300px" class="logo-background-square"></rect><!----><defs data-v-fde0c5aa=""><linearGradient data-v-fde0c5aa="" gradientTransform="rotate(25)" id="3ca43021-87bf-440a-9f1c-6b9f498854b8" x1="0%" y1="0%" x2="100%" y2="0%"><stop data-v-fde0c5aa="" offset="0%" stop-color="#22526E" stop-opacity="1"></stop><stop data-v-fde0c5aa="" offset="100%" stop-color="#BDB496" stop-opacity="1"></stop></linearGradient></defs><g data-v-fde0c5aa="" id="96edb1da-1e09-4454-bdb2-ca229d4f417d" fill="url(#3ca43021-87bf-440a-9f1c-6b9f498854b8)" stroke="none" transform="matrix(4.372574664067612,0,0,4.372574664067612,39.247572389515526,39.622243485730216)"><path d="M25.067 8.565a5.278 5.278 0 1 1 0 10.556 5.28 5.28 0 0 1 0-10.556z"></path><path d="M47.642 26.734a2.695 2.695 0 0 0-3.634 1.156l-1.336 2.581-7.694-8.417a2.715 2.715 0 0 0-.528-.436c-.737-.605-1.956-1.038-3.883-1.159H28.43v16.276h-6.582V20.459l-12.433.019 5.501-9.848a2.899 2.899 0 0 0-.718-3.671l10.99-5.295a.83.83 0 0 0-.722-1.495L11.12 6.599c-.004.001-.006.005-.01.007a2.88 2.88 0 0 0-1.266 1.191L1.926 21.973a2.907 2.907 0 0 0 2.536 4.321l10.269-.016v10.458h-4.094L12.13 48.76H5.257v1.64h39.556v-1.64h-6.735l1.493-12.024h-4.133V30.55l5.863 6.414a2.695 2.695 0 0 0 4.385-.581l3.111-6.016a2.695 2.695 0 0 0-1.155-3.633zm-9.95 11.662l-1.289 10.365H13.804l-1.289-10.365h25.177z"></path></g><!----></svg>