<svg data-v-423bf9ae="" xmlns="http://www.w3.org/2000/svg" viewBox="0 0 129.83807419548202 163" class="iconAbove"><!----><!----><!----><g data-v-423bf9ae="" id="852307a0-7331-4fc5-990a-afe4e3db59a1" fill="#250A05" transform="matrix(6.072875009773232,0,0,6.072875009773232,0.6072876574995973,74.51821824085664)"><path d="M1.86 14.57L1.86 14.57L1.86 14.57Q0.92 14.57 0.41 14.11L0.41 14.11L0.41 14.11Q-0.10 13.64-0.10 12.78L-0.10 12.78L-0.10 12.78Q-0.10 12.59-0.07 12.39L-0.07 12.39L-0.07 12.39Q-0.04 12.19 0 11.98L0 11.98L1.50 4.97L3.57 4.69L2.90 7.84L2.90 7.84Q3.23 7.63 3.49 7.54L3.49 7.54L3.49 7.54Q3.75 7.45 4.05 7.45L4.05 7.45L4.05 7.45Q4.87 7.45 5.29 8.04L5.29 8.04L5.29 8.04Q5.70 8.64 5.70 9.84L5.70 9.84L5.70 9.84Q5.70 10.67 5.45 11.54L5.45 11.54L5.45 11.54Q5.19 12.40 4.75 13.05L4.75 13.05L4.75 13.05Q4.23 13.80 3.50 14.19L3.50 14.19L3.50 14.19Q2.77 14.57 1.86 14.57ZM1.90 12.57L1.90 12.57L1.90 12.57Q1.90 12.89 2.09 13.05L2.09 13.05L2.09 13.05Q2.28 13.22 2.65 13.22L2.65 13.22L2.65 13.22Q3.28 13.22 3.78 12.11L3.78 12.11L3.78 12.11Q4.28 11.00 4.28 9.79L4.28 9.79L4.28 9.79Q4.28 9.20 4.08 8.82L4.08 8.82L4.08 8.82Q3.88 8.44 3.54 8.44L3.54 8.44L3.54 8.44Q3.32 8.44 3.07 8.51L3.07 8.51L3.07 8.51Q2.81 8.58 2.72 8.69L2.72 8.69L1.95 12.25L1.95 12.25Q1.93 12.33 1.92 12.42L1.92 12.42L1.92 12.42Q1.90 12.50 1.90 12.57ZM11.63 8.71L11.63 8.71L11.63 8.71Q11.63 9.87 10.68 10.73L10.68 10.73L10.68 10.73Q9.73 11.59 8.41 11.66L8.41 11.66L8.41 11.66Q8.40 11.90 8.39 12.02L8.39 12.02L8.39 12.02Q8.39 12.14 8.39 12.22L8.39 12.22L8.39 12.22Q8.39 12.87 8.60 13.13L8.60 13.13L8.60 13.13Q8.82 13.40 9.39 13.40L9.39 13.40L9.39 13.40Q10.05 13.40 10.61 13.10L10.61 13.10L10.61 13.10Q11.16 12.80 11.87 11.98L11.87 11.98L12.35 11.98L12.35 11.98Q11.54 13.30 10.58 13.94L10.58 13.94L10.58 13.94Q9.63 14.57 8.50 14.57L8.50 14.57L8.50 14.57Q7.42 14.57 6.87 14.01L6.87 14.01L6.87 14.01Q6.31 13.45 6.31 12.35L6.31 12.35L6.31 12.35Q6.31 11.55 6.57 10.65L6.57 10.65L6.57 10.65Q6.82 9.76 7.24 9.06L7.24 9.06L7.24 9.06Q7.76 8.22 8.48 7.79L8.48 7.79L8.48 7.79Q9.20 7.36 10.09 7.36L10.09 7.36L10.09 7.36Q10.86 7.36 11.25 7.69L11.25 7.69L11.25 7.69Q11.63 8.02 11.63 8.71ZM10.21 8.11L10.21 8.11L10.21 8.11Q9.73 8.11 9.25 8.95L9.25 8.95L9.25 8.95Q8.76 9.80 8.53 10.99L8.53 10.99L8.53 10.99Q9.34 10.93 9.95 10.24L9.95 10.24L9.95 10.24Q10.56 9.55 10.56 8.68L10.56 8.68L10.56 8.68Q10.56 8.39 10.47 8.25L10.47 8.25L10.47 8.25Q10.39 8.11 10.21 8.11ZM16.00 12.15L16.00 12.15L16.00 12.15Q16.00 12.32 15.99 12.45L15.99 12.45L15.99 12.45Q15.97 12.57 15.95 12.68L15.95 12.68L15.95 12.68Q16.23 12.52 16.49 12.33L16.49 12.33L16.49 12.33Q16.76 12.15 16.95 11.98L16.95 11.98L17.54 11.98L17.54 11.98Q17.11 12.49 16.58 12.92L16.58 12.92L16.58 12.92Q16.06 13.34 15.40 13.73L15.40 13.73L15.40 13.73Q15.02 14.14 14.43 14.36L14.43 14.36L14.43 14.36Q13.85 14.57 13.20 14.57L13.20 14.57L13.20 14.57Q12.26 14.57 11.71 14.06L11.71 14.06L11.71 14.06Q11.16 13.55 11.16 12.78L11.16 12.78L11.16 12.78Q11.16 12.35 11.37 11.99L11.37 11.99L11.37 11.99Q11.58 11.63 11.90 11.48L11.90 11.48L11.90 11.48Q12.38 10.63 12.79 9.65L12.79 9.65L12.79 9.65Q13.20 8.68 13.62 7.34L13.62 7.34L15.69 7.06L15.69 7.06Q15.74 8.11 15.79 8.97L15.79 8.97L15.79 8.97Q15.85 9.84 15.93 10.86L15.93 10.86L15.93 10.86Q15.97 11.45 15.99 11.69L15.99 11.69L15.99 11.69Q16.00 11.93 16.00 12.15ZM13.71 8.85L13.71 8.85L13.71 8.85Q13.52 9.42 13.27 10.04L13.27 10.04L13.27 10.04Q13.01 10.67 12.57 11.49L12.57 11.49L12.57 11.49Q12.73 11.56 12.81 11.69L12.81 11.69L12.81 11.69Q12.89 11.82 12.89 11.98L12.89 11.98L12.89 11.98Q12.89 12.25 12.71 12.46L12.71 12.46L12.71 12.46Q12.53 12.67 12.28 12.67L12.28 12.67L12.28 12.67Q12.14 12.67 12.04 12.62L12.04 12.62L12.04 12.62Q11.94 12.57 11.90 12.49L11.90 12.49L11.90 12.49Q11.90 13.01 12.10 13.24L12.10 13.24L12.10 13.24Q12.31 13.47 12.75 13.47L12.75 13.47L12.75 13.47Q13.33 13.47 13.65 13.13L13.65 13.13L13.65 13.13Q13.97 12.80 13.97 12.17L13.97 12.17L13.97 12.17Q13.97 11.97 13.96 11.77L13.96 11.77L13.96 11.77Q13.94 11.56 13.90 11.09L13.90 11.09L13.90 11.09Q13.83 10.43 13.79 9.93L13.79 9.93L13.79 9.93Q13.75 9.42 13.71 8.85ZM17.33 8.05L17.44 7.49L17.91 7.49L18.33 5.56L20.40 5.28L19.92 7.49L20.76 7.49L20.65 8.05L19.81 8.05L18.91 12.25L18.91 12.25Q18.89 12.38 18.87 12.48L18.87 12.48L18.87 12.48Q18.86 12.59 18.86 12.70L18.86 12.70L18.86 12.70Q18.86 12.98 18.99 13.10L18.99 13.10L18.99 13.10Q19.12 13.22 19.43 13.22L19.43 13.22L19.43 13.22Q19.82 13.22 20.17 12.87L20.17 12.87L20.17 12.87Q20.52 12.53 20.69 11.98L20.69 11.98L21.28 11.98L21.28 11.98Q20.83 13.26 20.08 13.92L20.08 13.92L20.08 13.92Q19.32 14.57 18.34 14.57L18.34 14.57L18.34 14.57Q17.64 14.57 17.24 14.13L17.24 14.13L17.24 14.13Q16.84 13.69 16.84 12.89L16.84 12.89L16.84 12.89Q16.84 12.71 16.87 12.48L16.87 12.48L16.87 12.48Q16.90 12.25 16.95 11.98L16.95 11.98L17.79 8.05L17.33 8.05Z"></path></g><defs data-v-423bf9ae=""><linearGradient data-v-423bf9ae="" gradientTransform="rotate(25)" id="b8e62d6b-c055-4af8-addf-b5b3ef095ad4" x1="0%" y1="0%" x2="100%" y2="0%"><stop data-v-423bf9ae="" offset="0%" style="stop-color: rgb(48, 34, 58); stop-opacity: 1;"></stop><stop data-v-423bf9ae="" offset="100%" style="stop-color: rgb(241, 56, 0); stop-opacity: 1;"></stop></linearGradient></defs><g data-v-423bf9ae="" id="31083fb4-8d5c-4dbc-bb48-995116e75e6a" transform="matrix(2.108419393237461,0,0,2.108419393237461,-39.76292046474926,-59.7639740953512)" stroke="none" fill="url(#b8e62d6b-c055-4af8-addf-b5b3ef095ad4)"><path d="M69.842 28.657H30.157a1.5 1.5 0 0 0-1.5 1.5v39.686a1.5 1.5 0 0 0 1.5 1.5h39.685a1.5 1.5 0 0 0 1.5-1.5V30.157a1.5 1.5 0 0 0-1.5-1.5zM54.813 53.5h1.617v14.843H43.569V53.501h1.618a1.5 1.5 0 0 0 1.5-1.5V31.657h6.626V52a1.5 1.5 0 0 0 1.5 1.5zM31.657 31.657h5.794v20.344a1.5 1.5 0 0 0 1.5 1.5h1.618v14.842h-8.912V31.657zm36.685 36.686h-8.911V53.5h1.617a1.5 1.5 0 0 0 1.5-1.5V31.657h5.794v36.686z"></path></g><!----></svg>