<svg data-v-fde0c5aa="" xmlns="http://www.w3.org/2000/svg" viewBox="0 0 300 300" class="icon"><!----><defs data-v-fde0c5aa=""><!----></defs><rect data-v-fde0c5aa="" fill="transparent" x="0" y="0" width="300px" height="300px" class="logo-background-square"></rect><!----><defs data-v-fde0c5aa=""><linearGradient data-v-fde0c5aa="" gradientTransform="rotate(25)" id="8784098f-af27-48af-a5be-4dc5317fc520" x1="0%" y1="0%" x2="100%" y2="0%"><stop data-v-fde0c5aa="" offset="0%" stop-color="#5F2517" stop-opacity="1"></stop><stop data-v-fde0c5aa="" offset="100%" stop-color="#FFEDB5" stop-opacity="1"></stop></linearGradient></defs><g data-v-fde0c5aa="" id="d0171a3a-fca6-43e4-83c2-5b328ac2693c" fill="url(#8784098f-af27-48af-a5be-4dc5317fc520)" stroke="none" transform="matrix(2.2995714875158475,0,0,2.2995714875158475,35.02370638816467,35.021434396376684)"><path d="M93.146 53.175c2.949-1.872 3.821-6.621 4.664-8.872l.024-.169-.17.017c-4.612.469-7.021 2.95-8.284 4.802a37.97 37.97 0 0 0 .468-5.919l-.001-.071.02.027s2.312-.332 4.461-2.856c2.264-2.66 1.694-7.454 1.835-9.854l-.027-.169-.157.067c-4.351 1.846-5.896 5.012-6.531 7.159a40.214 40.214 0 0 0-1.051-5.045c.445-.238 2.202-1.305 3.388-3.925 1.438-3.183-.437-7.632-.966-9.977l-.072-.155-.133.107c-3.421 2.776-4.181 5.979-4.282 8.215a40.216 40.216 0 0 0-1.782-3.499l.024.011s1.777-1.425 2.328-4.61c.581-3.356-2.275-7.098-3.348-9.182l-.106-.128-.099.134c-2.648 3.588-2.477 6.911-1.983 9.04a39.366 39.366 0 0 0-1.24-1.514c-.071-1.121-.642-2.509-1.95-3.98-1.437-1.618-4.195-3.92-9.004-3.632l-.166.01.051.159c1.163 2.035 2.745 6.469 5.876 7.809 1.76.753 3.229.81 4.141.731.478.559.938 1.13 1.381 1.712l-.122-.049c-2.021-.772-5.531-1.543-9.664.929l-.144.085.117.118c1.971 1.269 5.419 4.474 8.815 4.22 1.728-.129 2.98-.656 3.776-1.119a38.697 38.697 0 0 1 2.095 4.239 10.438 10.438 0 0 0-.353-.261c-1.809-1.286-5.096-2.953-9.835-1.561l-.164.048.087.147c1.63 1.767 4.231 5.834 7.668 6.454 1.856.335 3.302.088 4.204-.188a38.6 38.6 0 0 1 1.038 5.036l-.024-.032c-1.382-1.736-4.079-4.248-9.02-4.222l-.17.001.042.166c1.077 2.149 2.451 6.778 5.582 8.325 1.611.797 3.008.981 3.953.984l.001.096c0 2.039-.171 4.064-.508 6.063-.019-.049-.035-.098-.055-.148-.807-2.068-2.642-5.264-7.368-6.698l-.163-.05-.009.17c.395 2.372.339 7.2 2.873 9.604 1.321 1.253 2.618 1.841 3.521 2.118a38.875 38.875 0 0 1-2.138 5.365 10.58 10.58 0 0 0-.021-.523c-.136-2.215-.903-5.818-4.965-8.631l-.142-.097-.06.16c-.35 2.379-1.88 6.958-.203 10.021.998 1.822 2.232 2.814 3.016 3.301a44.183 44.183 0 0 1-3.504 4.734c.032-.146.062-.294.089-.446.407-2.275.518-6.111-2.901-9.956l-.118-.133-.101.146c-.938 2.32-3.614 6.578-2.67 10.091.546 2.031 1.509 3.32 2.18 4.021-.188.178-.374.356-.564.532a53.551 53.551 0 0 1-4.043 3.374c.043-.107.087-.214.127-.326.845-2.292 1.667-6.265-1.181-10.897l-.099-.161-.133.135c-1.405 2.242-4.976 6.18-4.642 10.01.173 1.992.81 3.421 1.351 4.31a48.193 48.193 0 0 1-5.695 2.87c.175-.195.351-.402.524-.626 1.399-1.802 3.255-5.104 2.031-10.033l-.042-.17-.155.082c-1.886 1.598-6.177 4.091-6.964 7.595-.509 2.264-.136 3.958.154 4.812-2.058.672-3.977 1.184-5.719 1.649l-.042.01-.042-.01c-1.743-.466-3.662-.978-5.719-1.649.29-.854.662-2.549.154-4.812-.787-3.504-5.079-5.997-6.964-7.595l-.156-.082-.042.17c-1.224 4.929.631 8.231 2.032 10.033.173.224.349.431.524.626a48.127 48.127 0 0 1-5.696-2.87c.541-.889 1.177-2.317 1.35-4.31.334-3.83-3.236-7.768-4.642-10.01l-.131-.135-.098.161c-2.848 4.633-2.026 8.605-1.183 10.897.042.112.085.219.128.325a53.284 53.284 0 0 1-4.042-3.373c-.191-.176-.378-.354-.566-.532.671-.7 1.635-1.989 2.18-4.021.944-3.513-1.731-7.771-2.67-10.091l-.101-.146-.114.133c-3.419 3.845-3.31 7.681-2.902 9.956.027.152.058.301.089.446a44.173 44.173 0 0 1-3.503-4.734c.783-.486 2.017-1.479 3.015-3.301 1.678-3.063.148-7.643-.203-10.021l-.06-.16-.14.097c-4.062 2.812-4.83 6.416-4.966 8.631-.011.18-.017.354-.02.523a39.007 39.007 0 0 1-2.139-5.365c.903-.277 2.2-.865 3.521-2.118 2.535-2.404 2.479-7.232 2.873-9.604l-.008-.17-.164.05c-4.728 1.435-6.561 4.63-7.368 6.698-.02.05-.036.099-.055.148-.336-2-.508-4.025-.508-6.064l.001-.096c.944-.003 2.341-.187 3.953-.984 3.131-1.547 4.504-6.176 5.583-8.325l.042-.166-.171-.001c-4.94-.026-7.636 2.486-9.019 4.222l-.024.033a38.647 38.647 0 0 1 1.037-5.037c.903.276 2.348.523 4.205.188 3.438-.62 6.039-4.688 7.669-6.454l.086-.147-.164-.048c-4.74-1.393-8.026.274-9.835 1.561-.122.086-.239.174-.353.261a38.518 38.518 0 0 1 2.095-4.239c.796.462 2.049.99 3.776 1.119 3.396.254 6.845-2.951 8.815-4.22l.118-.118-.143-.085c-4.134-2.473-7.644-1.702-9.664-.929l-.123.049c.443-.582.902-1.153 1.38-1.712.912.079 2.382.022 4.141-.731 3.131-1.34 4.713-5.774 5.876-7.809l.051-.159-.167-.01c-4.808-.288-7.567 2.014-9.004 3.632-1.308 1.471-1.877 2.859-1.949 3.98a40.356 40.356 0 0 0-1.241 1.514c.495-2.129.666-5.452-1.982-9.04l-.099-.134-.106.128c-1.073 2.084-3.929 5.826-3.348 9.182.552 3.185 2.328 4.61 2.328 4.61l.025-.011a39.526 39.526 0 0 0-1.782 3.499c-.101-2.235-.861-5.439-4.282-8.215l-.132-.107-.073.156c-.53 2.345-2.404 6.794-.965 9.977 1.186 2.62 2.942 3.688 3.388 3.925a40.037 40.037 0 0 0-1.051 5.045c-.636-2.146-2.182-5.313-6.533-7.159l-.157-.067-.027.169c.14 2.4-.43 7.194 1.834 9.854 2.149 2.525 4.46 2.856 4.46 2.856l.021-.027-.001.071c0 1.99.16 3.965.467 5.918-1.262-1.852-3.672-4.332-8.284-4.801l-.17-.017.024.169c.843 2.251 1.715 7 4.664 8.872 2.686 1.705 4.912 1.438 5.088 1.413a40.398 40.398 0 0 0 1.785 4.636c-1.802-1.326-4.772-2.747-9.082-1.83l-.167.035.075.154c1.491 1.885 3.774 6.139 7.154 7.019 2.412.628 4.188.188 4.921-.068a45.516 45.516 0 0 0 3.089 4.253c-2.141-.933-5.566-1.733-9.813.307l-.161.078.114.137c1.973 1.541 5.33 5.284 8.967 5.344 2.779.045 4.516-.969 5.089-1.365.179.168.355.337.537.505a55.86 55.86 0 0 0 3.718 3.137c-2.385-.622-6.229-.959-10.432 2.064l-.152.109.144.121c2.337 1.239 6.522 4.516 10.318 3.907 3.604-.581 5.237-2.564 5.237-2.564l-.046-.112c-.014-.035-.031-.068-.046-.104a48.976 48.976 0 0 0 4.729 2.477c-2.281.229-5.458 1.187-8.103 4.743l-.104.142.162.067c2.432.441 7.083 2.173 10.29.556 2.121-1.07 3.194-2.475 3.652-3.229 1.15.374 2.259.7 3.317.996-3.044.89-5.489 1.872-7.147 3.748l1.132 1.001c1.79-2.025 4.92-2.915 8.881-3.974 3.961 1.059 7.091 1.948 8.881 3.974l1.133-1.001c-1.658-1.876-4.104-2.858-7.147-3.748a82.37 82.37 0 0 0 3.318-.996c.456.754 1.531 2.158 3.651 3.229 3.206 1.617 7.858-.114 10.289-.556l.162-.067-.104-.142c-2.646-3.557-5.822-4.515-8.104-4.743a48.947 48.947 0 0 0 4.728-2.476c-.015.034-.032.067-.046.103l-.045.112s1.633 1.983 5.236 2.564c3.796.608 7.981-2.668 10.318-3.907l.145-.121-.153-.109c-4.201-3.023-8.046-2.687-10.431-2.064a55.511 55.511 0 0 0 3.718-3.137c.181-.168.357-.337.536-.505.573.396 2.311 1.41 5.089 1.365 3.637-.06 6.994-3.803 8.967-5.344l.114-.137-.16-.078c-4.248-2.041-7.673-1.239-9.814-.307a45.347 45.347 0 0 0 3.09-4.253c.734.257 2.509.696 4.921.068 3.381-.88 5.663-5.134 7.155-7.019l.074-.154-.167-.035c-4.31-.917-7.279.504-9.081 1.83a40.505 40.505 0 0 0 1.784-4.636c.18.024 2.407.291 5.091-1.413zm-69.29 8.402c-.297 4.328-.406 7.138-.648 8.873l-.099-.104c-.067-1.516-.156-5.801.747-8.769zm-4.488-8.032c-1.281 4.041-2.024 6.661-2.649 8.216l-.057-.099c.256-1.327 1.15-5.486 2.706-8.117zm-1.839-8.554c-2.291 3.223-3.758 5.411-4.814 6.737a18.176 18.176 0 0 1-.047-.195c.818-1.449 2.772-4.687 4.861-6.542zm.76-9.521c-3.104 2.374-5.139 4.019-6.539 4.979l.013-.213c1.237-1.165 4.018-3.628 6.526-4.766zm3.342-8.093c-3.798 1.483-6.259 2.527-7.868 3.042l.054-.153c1.377-.719 4.945-2.468 7.814-2.889zm4.372-6.575c-3.785.453-6.311.825-7.961.936l.113-.171c1.611-.363 5.175-1.054 7.848-.765zm2.01-9.798c-3.152 2.148-5.222 3.644-6.636 4.503l-.104-.098c1.19-1.013 4.146-3.395 6.74-4.405zM16.67 12.628c.653 3.148.034 7.696-.1 8.597l-.032.049c-.115-1.608.035-4.311.132-8.646zm-6.405 9.031c1.334 2.71 1.912 6.86 2.075 8.252-.019.053-.035.106-.053.16-.507-1.596-1.049-4.27-2.022-8.412zM5.782 33.122c2.3 2.527 4.178 7.093 4.431 7.723l-.002.029c-.943-1.35-2.227-3.828-4.429-7.752zm-.894 13.32c2.808 1.656 5.797 5.196 6.438 5.976l.018.07c-1.301-1.026-3.247-2.998-6.456-6.046zm2.888 12.352c2.749.62 6.058 2.54 7.453 3.401l.117.213c-1.565-.639-3.929-1.861-7.57-3.614zm5.642 10.947c3.105-.052 7.207 1.215 8.642 1.695l.127.13c-1.731-.237-4.478-.91-8.769-1.825zm8.095 9.277c3.97-.774 9.885.26 9.885.26-1.8.124-4.88-.088-9.885-.26zm17.049-4.419c1.829 4.152 3.06 6.718 3.603 8.334l-.052-.02c-.52-.871-2.923-5.011-3.551-8.314zm-7.692-6.006c.467 4.354.858 7.236.953 9.099l-.174-.115c-.38-1.766-1.15-5.905-.779-8.984zm2.315 17.93c2.435-1.331 6.076-2.091 7.84-2.4l.279.106c-1.654.557-4.26 1.212-8.119 2.294zm45.302-7.505c-5.006.173-8.086.385-9.886.26.001-.001 5.916-1.035 9.886-.26zM69.13 68.593c.371 3.079-.398 7.218-.778 8.983-.059.039-.117.076-.174.115.094-1.862.485-4.745.952-9.098zm-7.692 6.006c-.628 3.304-3.03 7.443-3.551 8.314l-.052.02c.543-1.617 1.773-4.182 3.603-8.334zm5.376 11.924c-3.858-1.082-6.465-1.737-8.118-2.294.092-.034.187-.07.278-.106 1.764.31 5.406 1.069 7.84 2.4zm28.298-40.081c-3.209 3.048-5.155 5.02-6.455 6.046a.9.9 0 0 1 .018-.07c.639-.778 3.629-4.32 6.437-5.976zm-.894-13.32c-2.202 3.925-3.485 6.403-4.429 7.752l-.001-.029c.252-.63 2.131-5.196 4.43-7.723zm-4.482-11.463c-.975 4.142-1.517 6.816-2.022 8.412-.019-.053-.035-.107-.054-.16.163-1.394.74-5.542 2.076-8.252zm-6.406-9.031c.098 4.335.247 7.038.132 8.646l-.032-.049c-.135-.903-.752-5.449-.1-8.597zm-11.344-1.624c2.594 1.01 5.55 3.393 6.74 4.405l-.104.099c-1.413-.861-3.483-2.356-6.636-4.504zm2.011 9.798c2.674-.289 6.236.402 7.849.765.038.057.074.115.112.171-1.65-.111-4.176-.483-7.961-.936zm4.371 6.575c2.87.421 6.437 2.169 7.813 2.889l.055.153c-1.608-.515-4.069-1.558-7.868-3.042zm3.344 8.093c2.507 1.138 5.288 3.601 6.524 4.765.006.071.009.143.013.214-1.398-.96-3.434-2.606-6.537-4.979zm.76 9.521c2.088 1.854 4.042 5.093 4.859 6.541l-.046.196c-1.056-1.326-2.523-3.514-4.813-6.737zm-1.839 8.554c1.555 2.631 2.449 6.789 2.706 8.117l-.058.099c-.625-1.556-1.368-4.175-2.648-8.216zm-3.742 16.803l-.1.103c-.24-1.735-.351-4.544-.647-8.873.903 2.967.813 7.252.747 8.77zm9.691-.607c-4.292.915-7.037 1.588-8.769 1.825l.127-.13c1.437-.48 5.537-1.747 8.642-1.695zm5.642-10.947c-3.641 1.753-6.005 2.975-7.569 3.614l.117-.213c1.394-.861 4.703-2.781 7.452-3.401z"></path></g><!----></svg>