<svg data-v-423bf9ae="" xmlns="http://www.w3.org/2000/svg" viewBox="0 0 667 90" class="iconLeft"><!----><!----><!----><g data-v-423bf9ae="" id="9bf0cf36-0054-4349-a574-ce849f018c09" fill="#ffffff" transform="matrix(6.471618747139749,0,0,6.471618747139749,160.14772944736526,-7.844815184341712)"><path d="M3.06 6.65L3.06 6.65L3.06 6.65Q2.67 6.80 2.34 7.02L2.34 7.02L2.34 7.02Q2.00 7.23 1.65 7.52L1.65 7.52L1.65 7.52Q-0.64 9.38 0.96 11.66L0.96 11.66L0.96 11.66Q1.42 12.21 1.88 12.45L1.88 12.45L1.88 12.45Q2.34 12.69 2.99 12.70L2.99 12.70L2.99 12.70Q3.64 12.70 4.26 12.05L4.26 12.05L4.26 12.05Q4.89 11.40 5.33 10.75L5.33 10.75L5.11 10.55L5.11 10.55Q4.94 10.78 4.68 11.06L4.68 11.06L4.68 11.06Q4.41 11.35 4.01 11.52L4.01 11.52L4.01 11.52Q3.62 11.70 3.12 11.63L3.12 11.63L3.12 11.63Q2.62 11.57 2.12 11.10L2.12 11.10L2.12 11.10Q1.63 10.62 1.32 9.71L1.32 9.71L1.32 9.71Q1.01 8.80 1.36 8.27L1.36 8.27L1.36 8.27Q1.72 7.75 2.38 7.57L2.38 7.57L2.38 7.57Q3.04 7.40 3.49 7.63L3.49 7.63L3.49 7.63Q3.94 7.86 4.35 8.63L4.35 8.63L5.15 7.96L5.15 7.96Q5.02 7.42 4.65 7.05L4.65 7.05L4.65 7.05Q4.27 6.69 3.86 6.59L3.86 6.59L3.86 6.59Q3.44 6.49 3.06 6.65ZM7.18 3.53L6.23 4.05L6.23 4.05Q6.53 4.42 6.51 5.35L6.51 5.35L6.51 5.35Q6.33 11.53 6.44 12.01L6.44 12.01L6.44 12.01Q6.56 12.50 7.12 12.80L7.12 12.80L8.44 11.96L8.31 11.72L8.31 11.72Q7.81 12.04 7.56 11.35L7.56 11.35L7.56 11.35Q7.31 10.66 7.53 4.89L7.53 4.89L7.53 4.89Q7.50 3.89 7.18 3.53L7.18 3.53ZM11.82 6.54L11.82 6.54L11.82 6.54Q10.80 6.56 9.96 7.23L9.96 7.23L9.96 7.23Q9.11 7.90 9.54 8.74L9.54 8.74L10.65 8.07L10.65 8.07Q10.43 6.90 11.86 7.03L11.86 7.03L11.86 7.03Q13.28 7.15 13.10 8.89L13.10 8.89L13.10 8.89Q11.99 8.39 11.11 8.61L11.11 8.61L11.11 8.61Q10.23 8.82 9.50 9.71L9.50 9.71L9.50 9.71Q8.91 10.58 9.12 11.18L9.12 11.18L9.12 11.18Q9.34 11.79 9.82 12.23L9.82 12.23L9.82 12.23Q10.30 12.67 10.90 12.71L10.90 12.71L10.90 12.71Q11.50 12.76 11.91 12.48L11.91 12.48L11.91 12.48Q12.32 12.20 13.11 11.49L13.11 11.49L13.11 11.49Q13.18 12.36 13.67 12.76L13.67 12.76L14.79 11.80L14.70 11.64L14.70 11.64Q14.13 12.10 14.07 10.58L14.07 10.58L14.08 8.14L14.08 8.14Q14.04 7.23 13.44 6.88L13.44 6.88L13.44 6.88Q12.84 6.53 11.82 6.54ZM12.80 9.84L12.80 9.84L13.07 9.47L13.08 11.08L13.08 11.08Q12.21 11.95 11.59 11.90L11.59 11.90L11.59 11.90Q10.96 11.85 10.54 11.48L10.54 11.48L10.54 11.48Q10.12 11.12 9.93 10.64L9.93 10.64L9.93 10.64Q9.73 10.17 10.00 9.71L10.00 9.71L10.00 9.71Q10.27 9.26 11.05 9.19L11.05 9.19L11.05 9.19Q11.84 9.11 12.80 9.84ZM18.10 6.53L18.10 6.53L18.10 6.53Q17.44 6.63 16.99 6.92L16.99 6.92L16.99 6.92Q16.54 7.21 16.18 7.57L16.18 7.57L16.18 7.57Q15.82 7.94 15.72 8.43L15.72 8.43L15.72 8.43Q15.63 8.93 16.05 9.37L16.05 9.37L16.05 9.37Q16.48 9.80 17.53 10.02L17.53 10.02L17.53 10.02Q18.59 10.24 18.99 10.47L18.99 10.47L18.99 10.47Q19.39 10.70 19.48 11.11L19.48 11.11L19.48 11.11Q19.56 11.53 19.27 11.79L19.27 11.79L19.27 11.79Q18.97 12.05 18.19 11.93L18.19 11.93L18.19 11.93Q17.41 11.81 17.00 11.55L17.00 11.55L17.00 11.55Q16.60 11.29 16.24 10.89L16.24 10.89L16.24 10.89Q15.88 10.50 16.15 10.34L16.15 10.34L16.06 10.25L15.29 10.84L15.29 10.84Q15.17 11.20 15.56 11.70L15.56 11.70L15.56 11.70Q15.96 12.21 16.54 12.52L16.54 12.52L16.54 12.52Q17.12 12.82 17.84 12.80L17.84 12.80L17.84 12.80Q18.57 12.78 19.17 12.34L19.17 12.34L19.17 12.34Q19.77 11.90 20.07 11.35L20.07 11.35L20.07 11.35Q20.37 10.81 20.28 10.36L20.28 10.36L20.28 10.36Q20.19 9.91 19.77 9.56L19.77 9.56L19.77 9.56Q19.36 9.20 18.05 8.95L18.05 8.95L18.05 8.95Q16.75 8.70 16.69 8.09L16.69 8.09L16.69 8.09Q16.64 7.48 17.23 7.31L17.23 7.31L17.23 7.31Q17.83 7.14 18.54 7.45L18.54 7.45L18.54 7.45Q19.26 7.76 18.98 8.13L18.98 8.13L19.07 8.24L19.87 7.40L19.87 7.40Q19.77 6.93 19.27 6.68L19.27 6.68L19.27 6.68Q18.76 6.43 18.10 6.53ZM23.67 6.53L23.67 6.53L23.67 6.53Q23.01 6.63 22.56 6.92L22.56 6.92L22.56 6.92Q22.11 7.21 21.75 7.57L21.75 7.57L21.75 7.57Q21.39 7.94 21.29 8.43L21.29 8.43L21.29 8.43Q21.20 8.93 21.63 9.37L21.63 9.37L21.63 9.37Q22.05 9.80 23.11 10.02L23.11 10.02L23.11 10.02Q24.16 10.24 24.56 10.47L24.56 10.47L24.56 10.47Q24.96 10.70 25.05 11.11L25.05 11.11L25.05 11.11Q25.14 11.53 24.84 11.79L24.84 11.79L24.84 11.79Q24.54 12.05 23.76 11.93L23.76 11.93L23.76 11.93Q22.98 11.81 22.58 11.55L22.58 11.55L22.58 11.55Q22.17 11.29 21.81 10.89L21.81 10.89L21.81 10.89Q21.45 10.50 21.72 10.34L21.72 10.34L21.63 10.25L20.86 10.84L20.86 10.84Q20.74 11.20 21.13 11.70L21.13 11.70L21.13 11.70Q21.53 12.21 22.11 12.52L22.11 12.52L22.11 12.52Q22.69 12.82 23.41 12.80L23.41 12.80L23.41 12.80Q24.14 12.78 24.74 12.34L24.74 12.34L24.74 12.34Q25.34 11.90 25.64 11.35L25.64 11.35L25.64 11.35Q25.94 10.81 25.85 10.36L25.85 10.36L25.85 10.36Q25.76 9.91 25.34 9.56L25.34 9.56L25.34 9.56Q24.93 9.20 23.63 8.95L23.63 8.95L23.63 8.95Q22.32 8.70 22.26 8.09L22.26 8.09L22.26 8.09Q22.21 7.48 22.80 7.31L22.80 7.31L22.80 7.31Q23.40 7.14 24.11 7.45L24.11 7.45L24.11 7.45Q24.83 7.76 24.55 8.13L24.55 8.13L24.64 8.24L25.44 7.40L25.44 7.40Q25.34 6.93 24.84 6.68L24.84 6.68L24.84 6.68Q24.34 6.43 23.67 6.53ZM27.41 3.68L26.68 4.38L26.68 4.38Q27.23 4.68 27.35 5.35L27.35 5.35L27.35 5.35Q28.36 4.81 28.13 4.32L28.13 4.32L28.13 4.32Q27.91 3.83 27.41 3.68L27.41 3.68ZM26.84 7.41L26.84 7.41Q27.17 7.39 27.08 9.19L27.08 9.19L27.08 9.19Q27.05 11.33 27.10 11.84L27.10 11.84L27.10 11.84Q27.15 12.35 27.71 12.68L27.71 12.68L28.51 11.84L28.51 11.84Q28.06 11.73 28.12 10.31L28.12 10.31L28.12 10.31Q28.14 7.65 28.12 7.25L28.12 7.25L28.12 7.25Q28.10 6.85 27.75 6.45L27.75 6.45L26.73 7.22L26.84 7.41ZM32.04 6.65L32.04 6.65L32.04 6.65Q31.66 6.80 31.32 7.02L31.32 7.02L31.32 7.02Q30.99 7.23 30.63 7.52L30.63 7.52L30.63 7.52Q28.35 9.38 29.95 11.66L29.95 11.66L29.95 11.66Q30.40 12.21 30.86 12.45L30.86 12.45L30.86 12.45Q31.33 12.69 31.98 12.70L31.98 12.70L31.98 12.70Q32.62 12.70 33.25 12.05L33.25 12.05L33.25 12.05Q33.87 11.40 34.32 10.75L34.32 10.75L34.10 10.55L34.10 10.55Q33.93 10.78 33.66 11.06L33.66 11.06L33.66 11.06Q33.39 11.35 33.00 11.52L33.00 11.52L33.00 11.52Q32.60 11.70 32.10 11.63L32.10 11.63L32.10 11.63Q31.60 11.57 31.11 11.10L31.11 11.10L31.11 11.10Q30.61 10.62 30.30 9.71L30.30 9.71L30.30 9.71Q30.00 8.80 30.35 8.27L30.35 8.27L30.35 8.27Q30.70 7.75 31.36 7.57L31.36 7.57L31.36 7.57Q32.03 7.40 32.48 7.63L32.48 7.63L32.48 7.63Q32.93 7.86 33.33 8.63L33.33 8.63L34.13 7.96L34.13 7.96Q34.00 7.42 33.63 7.05L33.63 7.05L33.63 7.05Q33.26 6.69 32.84 6.59L32.84 6.59L32.84 6.59Q32.42 6.49 32.04 6.65ZM37.64 6.54L37.64 6.54L37.64 6.54Q36.62 6.56 35.78 7.23L35.78 7.23L35.78 7.23Q34.93 7.90 35.36 8.74L35.36 8.74L36.47 8.07L36.47 8.07Q36.25 6.90 37.68 7.03L37.68 7.03L37.68 7.03Q39.10 7.15 38.92 8.89L38.92 8.89L38.92 8.89Q37.81 8.39 36.93 8.61L36.93 8.61L36.93 8.61Q36.05 8.82 35.31 9.71L35.31 9.71L35.31 9.71Q34.73 10.58 34.94 11.18L34.94 11.18L34.94 11.18Q35.16 11.79 35.64 12.23L35.64 12.23L35.64 12.23Q36.12 12.67 36.72 12.71L36.72 12.71L36.72 12.71Q37.32 12.76 37.73 12.48L37.73 12.48L37.73 12.48Q38.14 12.20 38.93 11.49L38.93 11.49L38.93 11.49Q39.00 12.36 39.49 12.76L39.49 12.76L40.61 11.80L40.52 11.64L40.52 11.64Q39.95 12.10 39.89 10.58L39.89 10.58L39.89 8.14L39.89 8.14Q39.86 7.23 39.26 6.88L39.26 6.88L39.26 6.88Q38.66 6.53 37.64 6.54ZM38.62 9.84L38.62 9.84L38.89 9.47L38.90 11.08L38.90 11.08Q38.03 11.95 37.41 11.90L37.41 11.90L37.41 11.90Q36.78 11.85 36.36 11.48L36.36 11.48L36.36 11.48Q35.94 11.12 35.75 10.64L35.75 10.64L35.75 10.64Q35.55 10.17 35.82 9.71L35.82 9.71L35.82 9.71Q36.09 9.26 36.87 9.19L36.87 9.19L36.87 9.19Q37.66 9.11 38.62 9.84ZM42.35 3.53L41.40 4.05L41.40 4.05Q41.69 4.42 41.68 5.35L41.68 5.35L41.68 5.35Q41.49 11.53 41.61 12.01L41.61 12.01L41.61 12.01Q41.72 12.50 42.29 12.80L42.29 12.80L43.61 11.96L43.47 11.72L43.47 11.72Q42.97 12.04 42.72 11.35L42.72 11.35L42.72 11.35Q42.47 10.66 42.69 4.89L42.69 4.89L42.69 4.89Q42.66 3.89 42.35 3.53L42.35 3.53ZM52.73 7.75L52.75 8.42L52.75 8.42Q53.58 7.22 54.59 7.23L54.59 7.23L54.59 7.23Q55.60 7.23 55.49 8.74L55.49 8.74L55.49 8.74Q55.47 11.40 55.51 11.89L55.51 11.89L55.51 11.89Q55.56 12.39 56.14 12.74L56.14 12.74L57.25 11.93L57.18 11.77L57.18 11.77Q56.49 12.26 56.52 10.05L56.52 10.05L56.52 10.05Q56.55 7.83 56.42 7.37L56.42 7.37L56.42 7.37Q56.29 6.90 55.57 6.60L55.57 6.60L55.57 6.60Q54.84 6.29 54.21 6.64L54.21 6.64L54.21 6.64Q53.57 6.99 53.29 7.22L53.29 7.22L53.29 7.22Q53.01 7.44 52.73 7.75L52.73 7.75ZM48.71 6.55L47.42 7.42L47.50 7.57L47.50 7.57Q48.13 7.20 48.14 8.48L48.14 8.48L48.14 8.48Q48.07 11.45 48.16 11.91L48.16 11.91L48.16 11.91Q48.25 12.37 48.82 12.71L48.82 12.71L49.89 12.00L49.89 11.84L49.89 11.84Q49.32 11.92 49.24 11.07L49.24 11.07L49.24 11.07Q49.16 10.23 49.23 8.33L49.23 8.33L49.23 8.33Q49.96 7.22 50.97 7.23L50.97 7.23L50.97 7.23Q51.97 7.23 51.86 8.74L51.86 8.74L51.86 8.74Q51.84 11.40 51.89 11.89L51.89 11.89L51.89 11.89Q51.94 12.39 52.52 12.74L52.52 12.74L53.63 11.93L53.55 11.77L53.55 11.77Q52.86 12.26 52.90 10.05L52.90 10.05L52.90 10.05Q52.93 7.83 52.80 7.37L52.80 7.37L52.80 7.37Q52.67 6.90 51.95 6.60L51.95 6.60L51.95 6.60Q51.22 6.29 50.59 6.64L50.59 6.64L50.59 6.64Q49.95 6.99 49.67 7.22L49.67 7.22L49.67 7.22Q49.39 7.44 49.21 7.66L49.21 7.66L49.21 7.66Q49.27 6.81 48.71 6.55L48.71 6.55ZM62.83 12.76L64.20 11.83L64.11 11.71L64.11 11.71Q63.49 12.12 63.50 10.52L63.50 10.52L63.50 10.52Q63.68 7.62 63.62 7.19L63.62 7.19L63.62 7.19Q63.55 6.76 62.97 6.37L62.97 6.37L61.89 7.08L61.94 7.21L61.94 7.21Q62.49 6.89 62.49 7.90L62.49 7.90L62.49 7.90Q62.49 8.91 62.42 10.80L62.42 10.80L62.42 10.80Q61.11 12.24 60.15 11.95L60.15 11.95L60.15 11.95Q59.19 11.66 59.33 9.75L59.33 9.75L59.33 9.75Q59.36 7.70 59.32 7.22L59.32 7.22L59.32 7.22Q59.27 6.73 58.67 6.36L58.67 6.36L57.63 7.10L57.72 7.25L57.72 7.25Q58.20 7.01 58.27 7.94L58.27 7.94L58.27 7.94Q58.34 8.88 58.27 10.32L58.27 10.32L58.27 10.32Q58.22 11.20 58.49 11.78L58.49 11.78L58.49 11.78Q58.75 12.37 59.43 12.61L59.43 12.61L59.43 12.61Q60.11 12.84 60.92 12.50L60.92 12.50L60.92 12.50Q61.74 12.15 62.39 11.46L62.39 11.46L62.39 11.46Q62.30 12.41 62.83 12.76L62.83 12.76ZM67.53 6.53L67.53 6.53L67.53 6.53Q66.87 6.63 66.42 6.92L66.42 6.92L66.42 6.92Q65.97 7.21 65.61 7.57L65.61 7.57L65.61 7.57Q65.25 7.94 65.15 8.43L65.15 8.43L65.15 8.43Q65.06 8.93 65.48 9.37L65.48 9.37L65.48 9.37Q65.91 9.80 66.96 10.02L66.96 10.02L66.96 10.02Q68.02 10.24 68.42 10.47L68.42 10.47L68.42 10.47Q68.82 10.70 68.91 11.11L68.91 11.11L68.91 11.11Q69.00 11.53 68.70 11.79L68.70 11.79L68.70 11.79Q68.40 12.05 67.62 11.93L67.62 11.93L67.62 11.93Q66.84 11.81 66.44 11.55L66.44 11.55L66.44 11.55Q66.03 11.29 65.67 10.89L65.67 10.89L65.67 10.89Q65.31 10.50 65.58 10.34L65.58 10.34L65.49 10.25L64.72 10.84L64.72 10.84Q64.60 11.20 64.99 11.70L64.99 11.70L64.99 11.70Q65.39 12.21 65.97 12.52L65.97 12.52L65.97 12.52Q66.55 12.82 67.27 12.80L67.27 12.80L67.27 12.80Q68.00 12.78 68.60 12.34L68.60 12.34L68.60 12.34Q69.20 11.90 69.50 11.35L69.50 11.35L69.50 11.35Q69.80 10.81 69.71 10.36L69.71 10.36L69.71 10.36Q69.62 9.91 69.20 9.56L69.20 9.56L69.20 9.56Q68.79 9.20 67.48 8.95L67.48 8.95L67.48 8.95Q66.18 8.70 66.12 8.09L66.12 8.09L66.12 8.09Q66.07 7.48 66.66 7.31L66.66 7.31L66.66 7.31Q67.26 7.14 67.97 7.45L67.97 7.45L67.97 7.45Q68.69 7.76 68.41 8.13L68.41 8.13L68.50 8.24L69.30 7.40L69.30 7.40Q69.20 6.93 68.70 6.68L68.70 6.68L68.70 6.68Q68.20 6.43 67.53 6.53ZM71.27 3.68L70.54 4.38L70.54 4.38Q71.09 4.68 71.21 5.35L71.21 5.35L71.21 5.35Q72.21 4.81 71.99 4.32L71.99 4.32L71.99 4.32Q71.77 3.83 71.27 3.68L71.27 3.68ZM70.70 7.41L70.70 7.41Q71.03 7.39 70.94 9.19L70.94 9.19L70.94 9.19Q70.91 11.33 70.96 11.84L70.96 11.84L70.96 11.84Q71.00 12.35 71.57 12.68L71.57 12.68L72.37 11.84L72.37 11.84Q71.92 11.73 71.98 10.31L71.98 10.31L71.98 10.31Q72.00 7.65 71.98 7.25L71.98 7.25L71.98 7.25Q71.96 6.85 71.61 6.45L71.61 6.45L70.59 7.22L70.70 7.41ZM75.90 6.65L75.90 6.65L75.90 6.65Q75.52 6.80 75.18 7.02L75.18 7.02L75.18 7.02Q74.85 7.23 74.49 7.52L74.49 7.52L74.49 7.52Q72.21 9.38 73.81 11.66L73.81 11.66L73.81 11.66Q74.26 12.21 74.72 12.45L74.72 12.45L74.72 12.45Q75.19 12.69 75.83 12.70L75.83 12.70L75.83 12.70Q76.48 12.70 77.11 12.05L77.11 12.05L77.11 12.05Q77.73 11.40 78.18 10.75L78.18 10.75L77.96 10.55L77.96 10.55Q77.79 10.78 77.52 11.06L77.52 11.06L77.52 11.06Q77.25 11.35 76.86 11.52L76.86 11.52L76.86 11.52Q76.46 11.70 75.96 11.63L75.96 11.63L75.96 11.63Q75.46 11.57 74.97 11.10L74.97 11.10L74.97 11.10Q74.47 10.62 74.16 9.71L74.16 9.71L74.16 9.71Q73.86 8.80 74.21 8.27L74.21 8.27L74.21 8.27Q74.56 7.75 75.22 7.57L75.22 7.57L75.22 7.57Q75.89 7.40 76.34 7.63L76.34 7.63L76.34 7.63Q76.79 7.86 77.19 8.63L77.19 8.63L77.99 7.96L77.99 7.96Q77.86 7.42 77.49 7.05L77.49 7.05L77.49 7.05Q77.12 6.69 76.70 6.59L76.70 6.59L76.70 6.59Q76.28 6.49 75.90 6.65Z"></path></g><!----><g data-v-423bf9ae="" id="a2dc99bf-d9a4-413a-ac80-82e3011609f8" transform="matrix(1.4210152569823686,0,0,1.4210152569823686,0.9492371508815722,-25.718051999361563)" stroke="none" fill="#746657"><path d="M0 18.332v63.335h100V18.332H0zM13.969 77.54c0 .956-.775 1.731-1.734 1.731H3.923c-.962 0-1.74-.775-1.74-1.731V20.55h8.184v39.093h3.602V77.54zm13.998 0c0 .956-.778 1.731-1.737 1.731h-8.312c-.958 0-1.74-.775-1.74-1.731V59.643h3.772V20.55h4.247v39.093h3.769l.001 17.897zm13.998 0c0 .956-.778 1.731-1.737 1.731h-8.312c-.961 0-1.74-.775-1.74-1.731V59.643h3.604V20.55h8.184l.001 56.99zm13.996 0c0 .956-.777 1.731-1.734 1.731h-8.313a1.734 1.734 0 0 1-1.737-1.731V20.55h8.129v39.093h3.657l-.002 17.897zm13.998 0c0 .956-.777 1.731-1.736 1.731H59.91a1.734 1.734 0 0 1-1.739-1.731V59.643h3.713V20.55h4.224v39.093h3.853l-.002 17.897zm13.995 0c0 .956-.778 1.731-1.733 1.731h-8.314a1.737 1.737 0 0 1-1.739-1.731V59.643h3.524V20.55h4.224v39.093h4.04l-.002 17.897zm13.998 0c0 .956-.778 1.731-1.737 1.731h-8.313a1.736 1.736 0 0 1-1.738-1.731V59.643h3.331V20.55h8.457v56.99z"></path></g><!----></svg>