<svg data-v-423bf9ae="" xmlns="http://www.w3.org/2000/svg" viewBox="0 0 489 105" class="iconLeft"><!----><!----><!----><g data-v-423bf9ae="" id="7dafed03-40da-4ea5-883b-d8ec40d5bd8f" fill="#ffffff" transform="matrix(4.823150918340797,0,0,4.823150918340797,88.321391128361,3.9336085190500185)"><path d="M8.22 3.92L8.02 3.92L0.73 3.92L0.52 3.92L0.42 3.92L0.42 5.96L0.77 5.96C0.97 5.96 1.05 5.85 1.06 5.63C1.06 5.53 1.09 5.17 1.12 4.52L4.02 4.52L4.02 13.26C3.85 13.26 3.71 13.27 3.57 13.27C3.43 13.27 3.32 13.29 3.25 13.29L3.12 13.29C2.94 13.30 2.84 13.38 2.84 13.54L2.84 13.82L4.02 13.82L4.73 13.82L5.92 13.82L5.92 13.54C5.92 13.38 5.82 13.30 5.64 13.29L5.50 13.29C5.43 13.29 5.33 13.27 5.19 13.27C5.05 13.27 4.90 13.26 4.73 13.26L4.73 4.52L7.62 4.52C7.66 5.24 7.67 5.60 7.67 5.63C7.69 5.85 7.78 5.96 7.98 5.96L8.32 5.96L8.32 3.92ZM11.82 6.73C11.31 6.73 10.86 6.83 10.47 7.00C10.08 7.17 9.74 7.41 9.46 7.71C9.18 8.02 8.99 8.40 8.85 8.85C8.71 9.30 8.62 9.79 8.62 10.33C8.62 10.88 8.71 11.37 8.85 11.80C8.99 12.24 9.18 12.63 9.46 12.94C9.74 13.24 10.08 13.48 10.47 13.65C10.86 13.82 11.31 13.90 11.82 13.90C12.32 13.90 12.75 13.82 13.15 13.65C13.54 13.48 13.87 13.24 14.14 12.94C14.41 12.63 14.63 12.24 14.77 11.80C14.91 11.37 14.98 10.88 14.98 10.33C14.98 9.79 14.91 9.30 14.77 8.85C14.63 8.40 14.41 8.02 14.14 7.71C13.87 7.41 13.54 7.17 13.15 7.00C12.75 6.83 12.32 6.73 11.82 6.73ZM11.82 13.38C11.40 13.38 11.03 13.31 10.72 13.17C10.42 13.03 10.15 12.82 9.94 12.56C9.73 12.29 9.59 11.97 9.48 11.59C9.37 11.21 9.32 10.79 9.32 10.33C9.32 9.87 9.37 9.45 9.48 9.07C9.59 8.69 9.73 8.37 9.94 8.11C10.15 7.84 10.42 7.62 10.72 7.48C11.03 7.34 11.40 7.27 11.82 7.27C12.24 7.27 12.59 7.34 12.89 7.48C13.20 7.62 13.47 7.84 13.68 8.11C13.89 8.37 14.04 8.69 14.14 9.07C14.24 9.45 14.29 9.87 14.29 10.33C14.29 10.79 14.24 11.21 14.14 11.59C14.04 11.97 13.89 12.29 13.68 12.56C13.47 12.82 13.20 13.03 12.89 13.17C12.59 13.31 12.24 13.38 11.82 13.38ZM21.92 7.63C21.45 7.04 20.78 6.73 19.92 6.73C19.40 6.73 18.96 6.86 18.54 7.11C18.13 7.36 17.77 7.69 17.46 8.11L17.39 7.03C17.39 6.96 17.37 6.92 17.33 6.89C17.29 6.86 17.23 6.86 17.18 6.86L16.81 6.86L15.81 6.86L15.81 7.13C15.81 7.28 15.90 7.36 16.09 7.38L16.16 7.38C16.18 7.38 16.23 7.39 16.27 7.39L16.48 7.39C16.58 7.39 16.69 7.41 16.81 7.41L16.81 15.72C16.66 15.72 16.52 15.75 16.41 15.75L16.17 15.75L16.09 15.75C15.90 15.76 15.81 15.85 15.81 16.00L15.81 16.28L16.81 16.28L17.49 16.28L18.49 16.28L18.49 16.00C18.49 15.85 18.40 15.76 18.21 15.75L18.14 15.75L18.03 15.75C17.99 15.75 17.92 15.74 17.82 15.74C17.72 15.74 17.61 15.72 17.49 15.72L17.49 12.88C17.74 13.22 18.03 13.48 18.38 13.65C18.73 13.82 19.14 13.90 19.61 13.90C20.10 13.90 20.52 13.80 20.90 13.62C21.28 13.44 21.60 13.19 21.85 12.87C22.11 12.54 22.32 12.15 22.44 11.72C22.58 11.28 22.64 10.79 22.64 10.29C22.64 9.10 22.40 8.22 21.92 7.63ZM21.80 11.55C21.70 11.93 21.53 12.25 21.32 12.53C21.11 12.81 20.86 13.01 20.55 13.16C20.24 13.31 19.88 13.38 19.47 13.38C19.05 13.38 18.69 13.30 18.37 13.13C18.05 12.96 17.75 12.70 17.49 12.29L17.49 8.64C17.78 8.20 18.10 7.87 18.48 7.63C18.86 7.39 19.28 7.28 19.74 7.28C20.45 7.28 21 7.52 21.38 8.01C21.76 8.50 21.95 9.25 21.95 10.29C21.95 10.75 21.91 11.17 21.80 11.55ZM38.07 13.29L37.98 13.29L37.88 13.29C37.84 13.29 37.77 13.27 37.67 13.27C37.58 13.27 37.45 13.26 37.32 13.26L37.32 9.37C37.32 8.95 37.27 8.57 37.17 8.25C37.07 7.92 36.93 7.64 36.74 7.42C36.54 7.20 36.30 7.03 36.02 6.92C35.74 6.80 35.45 6.75 35.10 6.75C34.86 6.75 34.61 6.78 34.38 6.85C34.16 6.92 33.95 7.01 33.75 7.15C33.56 7.29 33.38 7.46 33.22 7.67C33.07 7.88 32.96 8.13 32.87 8.43C32.76 7.90 32.56 7.48 32.26 7.18C31.95 6.89 31.54 6.75 31.04 6.75C30.81 6.75 30.60 6.76 30.41 6.83C30.21 6.89 30.03 6.99 29.85 7.10C29.68 7.21 29.51 7.36 29.36 7.52C29.20 7.67 29.06 7.84 28.92 8.04L28.87 7.03C28.85 6.92 28.78 6.86 28.66 6.86L28.29 6.86L27.29 6.86L27.29 7.13C27.29 7.28 27.37 7.36 27.55 7.38L27.64 7.38C27.66 7.38 27.69 7.39 27.73 7.39L27.94 7.39C28.04 7.39 28.17 7.41 28.29 7.41L28.29 13.26C28.13 13.26 27.99 13.29 27.87 13.29L27.65 13.29L27.55 13.29C27.37 13.30 27.29 13.38 27.29 13.54L27.29 13.82L28.29 13.82L28.95 13.82L29.96 13.82L29.96 13.54C29.96 13.38 29.88 13.30 29.69 13.29L29.61 13.29L29.51 13.29C29.47 13.29 29.40 13.27 29.30 13.27C29.20 13.27 29.08 13.26 28.95 13.26L28.95 8.55C29.20 8.15 29.50 7.84 29.82 7.62C30.14 7.39 30.49 7.28 30.87 7.28C31.39 7.28 31.78 7.45 32.05 7.81C32.31 8.18 32.45 8.69 32.45 9.37L32.45 13.82L33.12 13.82L33.12 13.82L34.13 13.82L34.13 13.54C34.13 13.38 34.03 13.30 33.85 13.29L33.78 13.29L33.67 13.29C33.63 13.29 33.56 13.27 33.46 13.27C33.36 13.27 33.25 13.26 33.12 13.26L33.12 9.37C33.12 9.02 33.17 8.72 33.26 8.46C33.36 8.19 33.50 7.97 33.67 7.80C33.84 7.63 34.03 7.49 34.26 7.41C34.48 7.32 34.72 7.28 34.96 7.28C35.50 7.28 35.92 7.46 36.22 7.81C36.51 8.18 36.67 8.68 36.67 9.37L36.67 13.82L37.32 13.82L38.33 13.82L38.33 13.54C38.33 13.38 38.25 13.30 38.07 13.29ZM46.42 13.29L46.35 13.29L46.24 13.29C46.20 13.29 46.13 13.27 46.03 13.27C45.93 13.27 45.82 13.26 45.70 13.26L45.70 6.85L45.02 6.86L44.02 6.86L44.02 7.13C44.02 7.28 44.11 7.36 44.30 7.38L44.37 7.38C44.39 7.38 44.44 7.39 44.48 7.39L44.69 7.39C44.79 7.39 44.90 7.41 45.02 7.41L45.02 12.08C44.72 12.49 44.35 12.81 43.96 13.05C43.57 13.27 43.15 13.40 42.70 13.40C42.08 13.40 41.62 13.20 41.33 12.84C41.03 12.46 40.88 11.96 40.88 11.30L40.88 6.85L40.21 6.86L39.20 6.86L39.20 7.13C39.20 7.28 39.30 7.36 39.48 7.38L39.55 7.38C39.58 7.38 39.62 7.39 39.66 7.39L39.87 7.39C39.97 7.39 40.08 7.41 40.21 7.41L40.21 11.30C40.21 11.70 40.26 12.07 40.36 12.39C40.46 12.71 40.60 12.99 40.80 13.22C40.99 13.44 41.22 13.62 41.51 13.75C41.80 13.87 42.14 13.93 42.53 13.93C43.05 13.93 43.53 13.80 43.95 13.57C44.37 13.33 44.74 13.01 45.07 12.60L45.12 13.64C45.12 13.76 45.21 13.82 45.33 13.82L45.70 13.82L46.70 13.82L46.70 13.54C46.70 13.38 46.61 13.30 46.42 13.29ZM52.54 11.06C52.43 10.86 52.29 10.71 52.11 10.57C51.93 10.43 51.72 10.32 51.49 10.23C51.27 10.15 51.02 10.05 50.78 9.98C50.54 9.91 50.30 9.83 50.06 9.76C49.84 9.69 49.63 9.59 49.45 9.49C49.27 9.39 49.13 9.27 49.01 9.13C48.90 8.99 48.85 8.81 48.85 8.58C48.85 8.40 48.87 8.23 48.96 8.08C49.04 7.92 49.15 7.77 49.31 7.64C49.45 7.52 49.63 7.43 49.84 7.36C50.05 7.29 50.27 7.25 50.53 7.25C50.89 7.25 51.25 7.31 51.63 7.43C51.65 7.60 51.66 7.77 51.67 7.92C51.69 8.08 51.69 8.19 51.70 8.27C51.72 8.36 51.72 8.43 51.72 8.44C51.73 8.67 51.83 8.78 52.02 8.78L52.36 8.78L52.36 7.11C51.63 6.86 51.02 6.75 50.51 6.75C50.16 6.75 49.84 6.80 49.56 6.90C49.28 7.00 49.03 7.14 48.83 7.31C48.64 7.48 48.48 7.69 48.37 7.91C48.26 8.13 48.22 8.37 48.22 8.62C48.22 8.92 48.27 9.16 48.38 9.35C48.50 9.55 48.64 9.70 48.82 9.84C49.00 9.98 49.20 10.09 49.43 10.18C49.66 10.26 49.90 10.35 50.15 10.42C50.39 10.49 50.62 10.57 50.86 10.64C51.09 10.71 51.30 10.81 51.48 10.92C51.66 11.03 51.81 11.16 51.93 11.31C52.04 11.47 52.09 11.65 52.09 11.89C52.09 12.10 52.05 12.29 51.98 12.49C51.90 12.68 51.79 12.84 51.63 12.98C51.48 13.12 51.30 13.23 51.07 13.31C50.85 13.40 50.60 13.44 50.30 13.44C49.77 13.44 49.32 13.37 48.94 13.22C48.93 13.03 48.92 12.87 48.90 12.71C48.89 12.56 48.89 12.43 48.87 12.35C48.86 12.26 48.86 12.19 48.86 12.18C48.85 11.96 48.75 11.84 48.55 11.84L48.22 11.84L48.22 13.54C48.89 13.79 49.57 13.93 50.27 13.93C50.67 13.93 51.00 13.87 51.31 13.76C51.62 13.65 51.87 13.50 52.08 13.30C52.29 13.10 52.44 12.89 52.56 12.63C52.67 12.36 52.72 12.08 52.72 11.77C52.72 11.49 52.65 11.26 52.54 11.06ZM54.88 4.89C54.94 4.94 55.01 4.98 55.08 5.01C55.15 5.04 55.23 5.07 55.31 5.07C55.40 5.07 55.48 5.04 55.55 5.01C55.62 4.98 55.69 4.94 55.75 4.89C55.80 4.83 55.86 4.76 55.89 4.69C55.92 4.62 55.94 4.54 55.94 4.45C55.94 4.37 55.92 4.30 55.89 4.21C55.86 4.14 55.80 4.07 55.75 4.02C55.69 3.96 55.62 3.91 55.55 3.88C55.48 3.85 55.40 3.84 55.31 3.84C55.23 3.84 55.15 3.85 55.08 3.88C55.01 3.91 54.94 3.96 54.88 4.02C54.82 4.07 54.78 4.14 54.75 4.21C54.73 4.28 54.70 4.37 54.70 4.45C54.70 4.54 54.73 4.62 54.75 4.69C54.78 4.76 54.82 4.83 54.88 4.89ZM56.38 13.29L56.31 13.29L56.20 13.29C56.15 13.29 56.08 13.27 55.99 13.27C55.89 13.27 55.78 13.26 55.65 13.26L55.65 6.85L54.98 6.85L53.97 6.85L53.97 7.13C53.97 7.28 54.07 7.36 54.25 7.38L54.32 7.38C54.35 7.38 54.39 7.39 54.43 7.39L54.64 7.39C54.74 7.39 54.85 7.41 54.98 7.41L54.98 13.26C54.82 13.26 54.68 13.29 54.57 13.29L54.33 13.29L54.25 13.29C54.07 13.30 53.97 13.38 53.97 13.54L53.97 13.82L54.98 13.82L55.65 13.82L56.66 13.82L56.66 13.54C56.66 13.38 56.56 13.30 56.38 13.29ZM62.94 12.70C62.92 12.66 62.86 12.63 62.80 12.63C62.75 12.63 62.69 12.66 62.61 12.74C62.52 12.82 62.40 12.91 62.26 13.01C62.12 13.10 61.92 13.17 61.70 13.26C61.47 13.34 61.18 13.38 60.84 13.38C60.48 13.38 60.14 13.31 59.85 13.17C59.56 13.03 59.30 12.85 59.09 12.59C58.88 12.33 58.72 12.01 58.60 11.63C58.49 11.26 58.44 10.82 58.44 10.33C58.44 9.86 58.49 9.44 58.60 9.06C58.72 8.68 58.88 8.36 59.09 8.09C59.30 7.83 59.57 7.62 59.88 7.48C60.19 7.34 60.54 7.27 60.94 7.27C61.29 7.27 61.68 7.35 62.13 7.50C62.15 7.69 62.15 7.87 62.16 8.04C62.17 8.20 62.19 8.33 62.20 8.43C62.22 8.53 62.22 8.58 62.22 8.60C62.23 8.82 62.33 8.93 62.52 8.93L62.86 8.93L62.86 7.18L62.50 7.07C62.26 7.00 61.96 6.92 61.64 6.85C61.32 6.78 61.07 6.75 60.90 6.75C60.40 6.75 59.96 6.82 59.57 7.00C59.18 7.18 58.84 7.42 58.58 7.74C58.31 8.06 58.11 8.44 57.97 8.88C57.83 9.31 57.75 9.80 57.75 10.33C57.75 10.89 57.82 11.40 57.97 11.84C58.11 12.29 58.32 12.66 58.59 12.96C58.86 13.27 59.18 13.51 59.54 13.66C59.91 13.83 60.30 13.92 60.75 13.92C61.01 13.92 61.26 13.89 61.50 13.83C61.74 13.78 61.96 13.72 62.17 13.64C62.38 13.55 62.55 13.44 62.72 13.31C62.89 13.19 63.01 13.06 63.13 12.92ZM65.25 4.89C65.31 4.94 65.38 4.98 65.45 5.01C65.52 5.04 65.60 5.07 65.69 5.07C65.77 5.07 65.86 5.04 65.93 5.01C66.00 4.98 66.07 4.94 66.12 4.89C66.18 4.83 66.23 4.76 66.26 4.69C66.29 4.62 66.32 4.54 66.32 4.45C66.32 4.37 66.29 4.30 66.26 4.21C66.23 4.14 66.18 4.07 66.12 4.02C66.07 3.96 66.00 3.91 65.93 3.88C65.86 3.85 65.77 3.84 65.69 3.84C65.60 3.84 65.52 3.85 65.45 3.88C65.38 3.91 65.31 3.96 65.25 4.02C65.20 4.07 65.16 4.14 65.13 4.21C65.10 4.28 65.07 4.37 65.07 4.45C65.07 4.54 65.10 4.62 65.13 4.69C65.16 4.76 65.20 4.83 65.25 4.89ZM66.75 13.29L66.68 13.29L66.57 13.29C66.53 13.29 66.46 13.27 66.36 13.27C66.26 13.27 66.15 13.26 66.02 13.26L66.02 6.85L65.35 6.85L64.34 6.85L64.34 7.13C64.34 7.28 64.44 7.36 64.62 7.38L64.69 7.38C64.72 7.38 64.76 7.39 64.81 7.39L65.02 7.39C65.11 7.39 65.23 7.41 65.35 7.41L65.35 13.26C65.20 13.26 65.06 13.29 64.95 13.29L64.71 13.29L64.62 13.29C64.44 13.30 64.34 13.38 64.34 13.54L64.34 13.82L65.35 13.82L66.02 13.82L67.03 13.82L67.03 13.54C67.03 13.38 66.93 13.30 66.75 13.29ZM73.89 13.29L73.79 13.29L73.57 13.29C73.47 13.29 73.36 13.27 73.25 13.27L73.25 9.28C73.25 8.89 73.21 8.55 73.11 8.23C73.01 7.91 72.87 7.64 72.69 7.42C72.51 7.20 72.27 7.03 71.99 6.92C71.71 6.79 71.39 6.73 71.01 6.73C70.50 6.73 70.06 6.83 69.65 7.01C69.24 7.20 68.87 7.48 68.50 7.84L68.61 8.05C68.66 8.13 68.73 8.18 68.82 8.18C68.89 8.18 68.99 8.12 69.09 8.02C69.19 7.92 69.33 7.84 69.50 7.73C69.66 7.62 69.85 7.52 70.08 7.42C70.32 7.32 70.60 7.28 70.94 7.28C71.48 7.28 71.90 7.45 72.18 7.80C72.46 8.15 72.59 8.64 72.59 9.28L72.59 10.01C71.81 10.02 71.13 10.09 70.57 10.21C70.01 10.32 69.55 10.47 69.19 10.65C68.82 10.84 68.57 11.06 68.40 11.31C68.24 11.56 68.15 11.83 68.15 12.12C68.15 12.45 68.21 12.73 68.31 12.95C68.42 13.17 68.56 13.36 68.73 13.50C68.89 13.64 69.10 13.75 69.33 13.82C69.55 13.89 69.78 13.93 70.01 13.93C70.29 13.93 70.56 13.90 70.80 13.85C71.04 13.79 71.25 13.71 71.46 13.61C71.67 13.51 71.86 13.38 72.06 13.23C72.24 13.08 72.42 12.91 72.62 12.73L72.72 13.62C72.74 13.75 72.84 13.82 72.98 13.82L73.00 13.82L73.25 13.82L74.17 13.82L74.17 13.54C74.17 13.38 74.07 13.30 73.89 13.29ZM72.59 12.26C72.42 12.43 72.27 12.60 72.10 12.74C71.93 12.88 71.75 13.01 71.55 13.12C71.36 13.23 71.15 13.30 70.92 13.36C70.70 13.41 70.45 13.44 70.18 13.44C70 13.44 69.82 13.43 69.65 13.37C69.48 13.31 69.34 13.24 69.22 13.13C69.09 13.02 68.98 12.88 68.91 12.71C68.82 12.54 68.80 12.35 68.80 12.11C68.80 11.86 68.87 11.63 69.02 11.44C69.17 11.24 69.40 11.09 69.71 10.95C70.01 10.81 70.41 10.70 70.88 10.61C71.36 10.53 71.93 10.47 72.59 10.46ZM82.71 13.29L82.64 13.29L82.53 13.29C82.49 13.29 82.42 13.27 82.32 13.27C82.22 13.27 82.11 13.26 81.98 13.26L81.98 9.37C81.98 8.96 81.93 8.60 81.83 8.27C81.73 7.95 81.59 7.67 81.40 7.45C81.20 7.22 80.96 7.06 80.67 6.93C80.37 6.80 80.04 6.75 79.66 6.75C79.14 6.75 78.67 6.87 78.25 7.11C77.83 7.36 77.46 7.67 77.14 8.08L77.08 7.03C77.07 6.92 77 6.86 76.87 6.86L76.51 6.86L75.50 6.86L75.50 7.13C75.50 7.28 75.59 7.36 75.77 7.38L75.85 7.38C75.88 7.38 75.91 7.39 75.95 7.39L76.16 7.39C76.26 7.39 76.38 7.41 76.51 7.41L76.51 13.26C76.34 13.26 76.20 13.29 76.09 13.29L75.87 13.29L75.77 13.29C75.59 13.30 75.50 13.38 75.50 13.54L75.50 13.82L76.51 13.82L77.17 13.82L78.18 13.82L78.18 13.54C78.18 13.38 78.09 13.30 77.91 13.29L77.83 13.29L77.73 13.29C77.69 13.29 77.62 13.27 77.52 13.27C77.42 13.27 77.29 13.26 77.17 13.26L77.17 8.60C77.48 8.19 77.83 7.87 78.22 7.63C78.61 7.39 79.03 7.28 79.49 7.28C80.11 7.28 80.57 7.46 80.86 7.83C81.16 8.20 81.31 8.71 81.31 9.37L81.31 13.82L81.98 13.82L82.99 13.82L82.99 13.54C82.99 13.38 82.89 13.30 82.71 13.29Z"></path></g><!----><g data-v-423bf9ae="" id="d9ab7688-836b-4022-b0f7-86829a604e7b" transform="matrix(1.0796553717719184,0,0,1.0796553717719184,-18.56800558232741,-0.5672994404525937)" stroke="none" fill="#C67D4E"><path d="M42.478 98.584c-1.972-.331-3.952-.62-5.912-1.011-1.082-.216-2.13-.603-3.318-.949l12.355-18.832-.916-.614 7.9-15.696.981.326 11.171-24.781c.798.72 1.551 1.332 2.227 2.02 2.15 2.188 3.665 4.712 4.092 7.818.32 2.331-.16 4.524-1.065 6.639-1.236 2.889-3.172 5.287-5.37 7.494-1.79-1.669-2.825-1.676-4.511.088-2.197 2.299-3.155 5.203-3.764 8.235-.438 2.178-.567 4.377.002 6.559.458 1.756 1.155 2.455 2.847 2.853-.188 5.968-1.214 11.643-5.723 16.078-2.224 2.187-4.993 3.232-8.056 3.574-.454.051-.904.132-1.356.2l-1.584-.001zM20.25 86.535c-.217-.402-.423-.811-.655-1.204-1.567-2.654-2.396-5.495-1.984-8.587.836-6.269 4.756-10.499 9.413-14.235 1.335 1.113 2.312 1.25 3.991.561 2.086-.856 3.766-2.281 5.244-3.94 2.058-2.309 3.803-4.819 4.321-7.957.397-2.408-.231-3.231-2.64-3.659.443-3.083 1.197-6.072 2.764-8.795 1.147-1.994 2.611-3.696 4.667-4.84 2.739-1.525 5.667-1.831 8.708-1.427.956.127 1.898.361 2.953.566l-13.096 23.82.85.588-7.8 15.746-1.041-.363-7.629 21.192c-.99-.742-1.929-1.347-2.752-2.082-1.49-1.332-2.911-2.741-4.36-4.118l-.954-1.266zM82.663 8.513l-.971 1.442a5319.2 5319.2 0 0 1-2.425-1.212l.655-1.81c.962.416 1.851.8 2.741 1.183v.397zM52.653 59.303c-.632-.301-1.135-.534-1.632-.781-.233-.116-.452-.257-.779-.445l12.613-26.623-.18-.092L48.79 57.394l-2.416-1.221 24.253-43.431 2.434 1.253-20.408 45.308z"></path><path d="M29.621 94.921l7.174-19.55 6.123 3.099c-1.255 1.917-2.471 3.78-3.692 5.64-2.314 3.522-4.635 7.04-6.944 10.565-.956 1.458-1.173 1.49-2.661.246zM75.732 13.217l-6.09-3.057 5.959-8.744c1.083.539 2.14 1.043 3.169 1.6.164.089.333.459.277.623-1.072 3.163-2.178 6.314-3.315 9.578zM46.371 58.284l1.45.724-7.956 15.824-1.443-.728 7.949-15.82zM42.988 76.387l-1.451-.718 7.95-15.794 1.461.699-7.96 15.813zM72.207 2.979c-1.25 1.86-.495 2.083-3.528.352l.831-1.664 2.697 1.312zM77.981 12.545l.621-1.89 2.252 1.11-.821 1.748-2.052-.968zM66.838 6.928l.913-1.734 2.226 1.107-1.098 1.643-2.041-1.016z"></path></g><!----></svg>