<svg data-v-fde0c5aa="" xmlns="http://www.w3.org/2000/svg" viewBox="0 0 300 300" class="icon"><!----><defs data-v-fde0c5aa=""><!----></defs><rect data-v-fde0c5aa="" fill="transparent" x="0" y="0" width="300px" height="300px" class="logo-background-square"></rect><!----><defs data-v-fde0c5aa=""><linearGradient data-v-fde0c5aa="" gradientTransform="rotate(25)" id="18979494-de80-44e8-897a-b0f78992ee60" x1="0%" y1="0%" x2="100%" y2="0%"><stop data-v-fde0c5aa="" offset="0%" stop-color="#693F24" stop-opacity="1"></stop><stop data-v-fde0c5aa="" offset="100%" stop-color="#9C9289" stop-opacity="1"></stop></linearGradient></defs><g data-v-fde0c5aa="" id="fd96484a-3eff-4601-b54e-b9c5934ad8e0" fill="url(#18979494-de80-44e8-897a-b0f78992ee60)" stroke="none" transform="matrix(2.423288778108932,0,0,2.423288778108932,33.23758463090568,29.82218759414814)"><path d="M82.6 17.9c-.1-.3-.4-.8-1-1.5-1.9-2.7-6.7-8.3-15.9-11.4-1.2-.5-2.1-.8-2.6-.8-1.1 0-.5 1.1 1.2 3.7 2.7 4.1-.1 9.2-5.7 19.1-3.1 5.5-10.1 16.3-15.7 24.7l-1.2-.8c-.3-.2-.6-.1-.8.1l-.4.6-2.3-1.6v-1.2c0-.3-.2-.4-.3-.1L36.3 51c-.2.2-.1.4.2.3l1.2-.4 2.2 1.6-.4.5c-.2.2-.1.6.2.8l1.3.9-.6.9-1.3-.9c-.3-.2-.6-.1-.8.1l-.3.4-2.3-1.6v-1.2c0-.3-.2-.4-.3-.1l-1.6 2.3c-.2.2-.1.4.2.3l1.2-.4 2.2 1.6-.4.4c-.2.2-.1.6.2.8l1.4.9-.6.9-1.4-1c-.3-.1-.6-.1-.8.2l-.4.6-2.3-1.6v-1.2c0-.3-.2-.4-.3-.1l-1.6 2.3c-.2.2-.1.4.2.3l1.2-.4 2.3 1.6-.4.6c-.2.2-.1.6.2.8l1.4 1-19.5 27.5c-2.3.9-2.6 1.4-2.6 1.4-.6.9-.1 2.3 1.2 3.2 1.1.8 2.4.9 3.1.3.1-.1.2-.1.3-.3.2-.2.2-.5.3-.8.2-.9.1-2 0-2.6l6.7-9.5c.3 2.2 1.4 4.3 3.4 5.6 3.6 2.5 8.4 1.8 10.8-1.6l2.7-3.8c1.1-.2 2.2-.8 3-1.9l5.3-7.6 3.2 2.2c.3.2.6.1.8-.1l1.3-1.9c.2-.2.1-.6-.2-.8l-4.3-3 .6-.9 4.3 3c.3.2.6.1.8-.1l1.3-1.9c.2-.2.1-.6-.2-.8l-4.3-3 .6-.9 4.3 3c.3.2.6.1.8-.1l1.3-1.9c.2-.2.1-.6-.2-.8L57.7 62l11.6-16.6c1-1.4 1.1-3 .5-4.3.5-2.9-.7-6-3.4-7.8-1.6-1.1-3.5-1.6-5.3-1.4.6-.7 1.1-1.4 1.6-2 7.3-8.6 11.1-13.1 15.9-12 2.8.7 4.2.8 4 0zM41.1 60l6.2 4.3-.6.9-6.2-4.3.6-.9zm-3.2 23.8c-1.7 2.4-5.1 2.9-7.6 1.2-2.5-1.8-3.2-5.1-1.5-7.5l9.3-13.3 6.1 4.3-5 7.2c-1.3 1.8-1 4.1.5 5.2.1 0 .1.1.2.1l-2 2.8zm3.6-4.5c-.1 0-.1-.1-.2-.1-.6-.4-.7-1.6 0-2.7l5.1-7.4 1.4 1-6.3 9.2zm8.3-11.9l-1.5-1 .6-.9 1.5 1-.6.9zm2.6-3.7l-9.3-6.5.6-.9 9.3 6.5-.6.9zm14.3-20.4L54.9 60l-1.4-1 11.4-16.1c.8-1.1 1.9-1.4 2.5-1-.1.5-.4 1-.7 1.4zm-1.7-8c1.5 1.1 2.4 2.7 2.5 4.4-1.5-.5-3.3.2-4.3 1.7L52 57.4l-6.1-4.3 10.4-14.7c.9-1.2 1.8-2.3 2.6-3.4 1.8-1.1 4.2-1.1 6.1.3z"></path></g><!----></svg>